<svg xmlns="http://www.w3.org/2000/svg" xmlns:xlink="http://www.w3.org/1999/xlink" viewBox="0 0 1567.37 718"><defs><style>.cls-1{fill:#0e1325;}.cls-2{fill:#0087cf;}.cls-3{fill:url(#Degradado_sin_nombre_2);}.cls-4{fill:url(#Degradado_sin_nombre_2-2);}</style><linearGradient id="Degradado_sin_nombre_2" x1="331.34" y1="428.1" x2="777.89" y2="428.1" gradientUnits="userSpaceOnUse"><stop offset="0" stop-color="#00c4d4"/><stop offset="1" stop-color="#4a008d"/></linearGradient><linearGradient id="Degradado_sin_nombre_2-2" x1="733.43" y1="284.99" x2="382.81" y2="284.99" xlink:href="#Degradado_sin_nombre_2"/></defs><title>Recurso 58</title><g id="Capa_2" data-name="Capa 2"><g id="Capa_4" data-name="Capa 4"><path class="cls-1" d="M324.7,587.67a207.07,207.07,0,0,1-35.33,21.7,178.06,178.06,0,0,1-41.46,13.91,243.17,243.17,0,0,1-49.8,4.74q-42.87,0-79-15.59a193.65,193.65,0,0,1-62.61-42.57A196.18,196.18,0,0,1,15,506.15q-15-36.73-15-79,0-41.74,14.75-78.47A194,194,0,0,1,119.64,241q36.74-15.85,81.25-15.86a246.5,246.5,0,0,1,48.69,4.45,199.13,199.13,0,0,1,40.35,12.52,189.19,189.19,0,0,1,33.94,19.21,264.24,264.24,0,0,1,29.49,24.48l-44,50.64a219.65,219.65,0,0,0-49.53-35.06Q233.71,288,200.33,288a121.81,121.81,0,0,0-51.47,10.85A127.24,127.24,0,0,0,108,328.35,132.47,132.47,0,0,0,81.24,372a151.49,151.49,0,0,0-9.46,54,153.71,153.71,0,0,0,9.46,54.26A134.94,134.94,0,0,0,108,524.51a125.37,125.37,0,0,0,40.9,29.77,122,122,0,0,0,51.47,10.85q35.61,0,61.21-13.63t50.64-37l44,44.51a251,251,0,0,1-31.45,28.66"/><path class="cls-1" d="M1128.59,587.67a207.55,207.55,0,0,1-35.34,21.7,178.06,178.06,0,0,1-41.46,13.91A243.1,243.1,0,0,1,1002,628q-42.86,0-79-15.59a193.76,193.76,0,0,1-62.61-42.57,196.18,196.18,0,0,1-41.46-63.71q-15-36.73-15-79,0-41.74,14.75-78.47A194,194,0,0,1,923.52,241q36.74-15.85,81.25-15.86a246.67,246.67,0,0,1,48.7,4.45,199,199,0,0,1,40.34,12.52,189.62,189.62,0,0,1,34,19.21,265.15,265.15,0,0,1,29.49,24.48l-44,50.64a219.82,219.82,0,0,0-49.52-35.06Q1037.59,288,1004.21,288a121.81,121.81,0,0,0-51.47,10.85,127.46,127.46,0,0,0-40.9,29.49A132.45,132.45,0,0,0,885.13,372a151.49,151.49,0,0,0-9.46,54,153.71,153.71,0,0,0,9.46,54.26,134.92,134.92,0,0,0,26.71,44.24,125.58,125.58,0,0,0,40.9,29.77,122,122,0,0,0,51.47,10.85q35.61,0,61.22-13.63t50.64-37L1160,559a250.89,250.89,0,0,1-31.44,28.66"/><path class="cls-1" d="M1552.35,503.92a195.9,195.9,0,0,1-42.29,64.28,203.62,203.62,0,0,1-64.56,43.68Q1408.23,628,1363.15,628t-82.37-15.87q-37.29-15.85-64-43.12a196.9,196.9,0,0,1-41.74-64,209.55,209.55,0,0,1,0-155.81,195.61,195.61,0,0,1,42.3-64.28,203.46,203.46,0,0,1,64.55-43.68q37.27-16.14,82.36-16.14T1446.62,241q37.28,15.86,64,43.13a197.07,197.07,0,0,1,41.74,64,209.57,209.57,0,0,1,0,155.82m-66.5-130.5a136.64,136.64,0,0,0-27.27-44.24,130.18,130.18,0,0,0-42-30.05Q1392.08,288,1363.15,288T1310,298.86a125.85,125.85,0,0,0-41.46,29.49,135.74,135.74,0,0,0-27,44,153.05,153.05,0,0,0,0,107.4A136.22,136.22,0,0,0,1268.82,524a129.52,129.52,0,0,0,42,30q24.47,11.14,53.42,11.13t53.14-10.85a125.85,125.85,0,0,0,41.46-29.49,135.81,135.81,0,0,0,27-44,152.93,152.93,0,0,0,0-107.41"/><path class="cls-2" d="M503.77,390.81a8.26,8.26,0,0,0-11.66-.53L459,420.79a8.25,8.25,0,0,0-.43,11.65l12.85,14.05.1.1.09-.1,25-23,23.12,25.08,14.15-13a8.25,8.25,0,0,0,.48-11.61Z"/><path class="cls-2" d="M620.12,395.61a8.19,8.19,0,0,0-11.6-.48l-33.15,30.5a8.21,8.21,0,0,0-.52,11.61l13,14.15,25-23,23.12,25.14,14.15-13.05a8.25,8.25,0,0,0,.52-11.61Z"/><path class="cls-3" d="M753.66,380.41l-2.57-.1a199.51,199.51,0,0,0-31.48-70.09,202.12,202.12,0,0,0-77.53-65.84A175.38,175.38,0,0,1,594,570a149,149,0,0,1-111.86-13.61h0a175.39,175.39,0,0,1,33.72-328.2,200.71,200.71,0,0,0-75.34,31.72,203,203,0,0,0-39.56,35.75v0c-2.26,2.6-4.37,5.24-6.42,7.92a200.56,200.56,0,0,0-27.1,47.59c-.44,1-.88,2-1.24,3.07-.21.47-.39,1-.58,1.48-1.37,3.64-2.59,7.35-3.76,11.09l-2.57-.1a25.12,25.12,0,0,0-26,24.24l-1.92,55.1A25.1,25.1,0,0,0,355.59,472l2.52.11a196.9,196.9,0,0,0,7.45,24.57c.37,1.07.81,2.16,1.28,3.22a200.25,200.25,0,0,0,60.53,82.64c1.19,1,2.44,2,3.69,3,1.63,1.24,3.27,2.49,5,3.68s3.4,2.45,5.12,3.67c.67.46,1.3.91,2,1.32.42.29.81.55,1.25.83,1.66,1.09,3.35,2.21,5.09,3.25,1.2.73,2.39,1.46,3.59,2.21s2.54,1.43,3.79,2.16c1,.51,2,1.06,3,1.63,3.07,1.64,6.16,3.22,9.3,4.7.39.19.73.34,1.07.47,4.18,2,8.44,3.74,12.75,5.38,1.46.52,2.94,1.12,4.37,1.58s2.93,1.07,4.41,1.54c2.94,1,5.95,1.87,9,2.72,1.49.39,3,.84,4.58,1.2q4.66,1.25,9.35,2.18c3.07.57,6.13,1.14,9.25,1.61,1.3.21,2.54.39,3.84.55s2.29.34,3.48.41l1.12.16c1.38.18,2.83.34,4.21.42,2.08.2,4.13.33,6.21.44,1.82.1,3.69.18,5.56.23,1.43,0,2.91.1,4.41.1.65,0,1.28.06,2,.06,3.28,0,6.47-.11,9.69-.21a5.63,5.63,0,0,1,.68,0h.39c1.14,0,2.34-.15,3.51-.26.41,0,.91,0,1.32-.07a10.32,10.32,0,0,1,1.4-.11.88.88,0,0,1,.39-.05c1.54-.13,3.07-.29,4.6-.47,1.33-.15,2.68-.34,4-.44a.42.42,0,0,1,.23,0,5.06,5.06,0,0,1,.86-.11,7.9,7.9,0,0,0,1-.13c2.54-.39,5.14-.78,7.69-1.24,1.64-.29,3.3-.63,4.93-1s3.28-.68,4.89-1.07c3.27-.75,6.49-1.58,9.69-2.49,2.93-.86,5.84-1.72,8.78-2.73,1.06-.34,2-.73,3.07-1,1.87-.68,3.68-1.35,5.53-2.08,4.21-1.64,8.39-3.35,12.47-5.32,1.38-.68,2.73-1.3,4.05-1.95q5.61-2.81,11-5.93c1.92-1.09,3.79-2.18,5.61-3.35,3.38-2.1,6.73-4.31,10-6.62,1.45-1,2.83-2,4.23-3.07a201.94,201.94,0,0,0,67.91-88.33c1.85-4.7,3.48-9.48,5-14.31l2.57.08a25.12,25.12,0,0,0,26-24.21l1.9-55.11A25.08,25.08,0,0,0,753.66,380.41Z"/><path class="cls-4" d="M733.43,398.34A175.37,175.37,0,0,1,594,570a149.58,149.58,0,0,0,90.15-70.07,147.74,147.74,0,0,0,19.48-70.5c0-1.07,0-2.13,0-3.17a148.1,148.1,0,0,0-20.29-75.06c-1-1.79-2.1-3.55-3.25-5.3a150.27,150.27,0,0,0-36.39-39.07,148.74,148.74,0,0,0-206.59,27.9,141.85,141.85,0,0,0-11.17,16.47c-.86,1.54-1.74,3-2.55,4.55a146.69,146.69,0,0,0-17.4,60c-.24,3.48-.39,7-.39,10.55a147.26,147.26,0,0,0,17.79,70.45c.57,1.09,1.2,2.16,1.82,3.22a149.69,149.69,0,0,0,56.87,56.46,175.39,175.39,0,0,1,33.72-328.2s0,0,.05,0a173.16,173.16,0,0,1,19.77-3.71l10.47-20.39,6.19-12,.23-.49.23-.47a230.69,230.69,0,0,0-46.47,5c-.81.18-1.64.38-2.39.51a233.27,233.27,0,0,0-27.83,8.16l.52-.67.16-.18,13.48-17.05,24.27-30.55,16.65-21,.62-.76,77.32-97.55L638.45,0l-15,42.24L602,102.49l-12.13,34.06h0l-2,5.89q4.59-.49,9.35-.72a167.39,167.39,0,0,1,24.78.52l2.08.2a189.87,189.87,0,0,1,20.42,3.41l-1,2.39-.44,1.06.49-1.06-7.48,18.7-13.54,33.77-.13.34-.33.86-.11.23L617.64,213l-7.2,18a175.36,175.36,0,0,1,123,167.39Z"/><path class="cls-1" d="M63,717.2H58.17l-4.68-10.55H31.75L27,717.2H22.4L40.59,677h4.23Zm-20.37-35-9.13,20.36h18.2Z"/><path class="cls-1" d="M109.79,717.2,98.21,701.68H86.8V717.2H82.29V677.26H99.47c8.78,0,14.43,4.74,14.43,11.93,0,6.67-4.57,10.55-10.84,11.69l12.26,16.32ZM99.12,681.43H86.8v16.2H99.06c6,0,10.27-3.08,10.27-8.27C109.33,684.39,105.57,681.43,99.12,681.43Z"/><path class="cls-1" d="M149.66,717.2h-4.57V681.43h-13.4v-4.17h31.38v4.17H149.66Z"/><path class="cls-1" d="M187.81,677.26V717.2h-4.5V677.26Z"/><path class="cls-1" d="M239.62,681.43h-24.2v14.26h21.63v4.11H215.42v17.4h-4.5V677.26h28.7Z"/><path class="cls-1" d="M264.65,677.26V717.2h-4.51V677.26Z"/><path class="cls-1" d="M306,717.89c-11.53,0-20-9.07-20-20.6s8.44-20.71,20.19-20.71c7.25,0,11.59,2.56,15.58,6.33l-3.08,3.31c-3.37-3.2-7.13-5.48-12.55-5.48-8.85,0-15.47,7.13-15.47,16.43s6.68,16.55,15.47,16.55c5.47,0,9.07-2.11,12.89-5.76l3,2.91C317.81,715.09,313.25,717.89,306,717.89Z"/><path class="cls-1" d="M346.15,677.26V717.2h-4.5V677.26Z"/><path class="cls-1" d="M406.46,717.2h-4.85l-4.68-10.55H375.19l-4.74,10.55h-4.61L384,677h4.23Zm-20.37-35L377,702.59h18.2Z"/><path class="cls-1" d="M425.73,677.26h4.51V713h22.47v4.16h-27Z"/><path class="cls-1" d="M505.86,677.26V717.2h-4.5V677.26Z"/><path class="cls-1" d="M558.35,677.26h4.39V717.2h-3.59l-25.79-32.75V717.2H529V677.26h4.22l25.16,32Z"/><path class="cls-1" d="M600.56,717.2H596V681.43H582.58v-4.17H614v4.17h-13.4Z"/><path class="cls-1" d="M662.67,681.37H638.31V695h21.8v4.1h-21.8v14H663v4.11H633.81V677.26h28.86Z"/><path class="cls-1" d="M683.43,677.26h4.51V713h22.48v4.16h-27Z"/><path class="cls-1" d="M730.15,677.26h4.51V713h22.48v4.16h-27Z"/><path class="cls-1" d="M781.77,677.26V717.2h-4.51V677.26Z"/><path class="cls-1" d="M823.42,717.89c-12.56,0-20.32-9.13-20.32-20.6,0-11,8-20.71,20-20.71,6.73,0,10.89,1.94,14.89,5.3l-2.91,3.43A17,17,0,0,0,823,680.74c-8.85,0-15.18,7.48-15.18,16.43,0,9.59,6.1,16.66,15.8,16.66a18.78,18.78,0,0,0,11.53-4v-9.93H823v-4h16.49v15.92A24.2,24.2,0,0,1,823.42,717.89Z"/><path class="cls-1" d="M889.86,681.37H865.5V695h21.8v4.1H865.5v14h24.65v4.11H861V677.26h28.86Z"/><path class="cls-1" d="M940,677.26h4.4V717.2h-3.6L915,684.45V717.2h-4.4V677.26h4.22l25.16,32Z"/><path class="cls-1" d="M985.35,717.89c-11.53,0-20-9.07-20-20.6s8.45-20.71,20.2-20.71c7.25,0,11.59,2.56,15.58,6.33L998,686.22c-3.37-3.2-7.13-5.48-12.56-5.48-8.84,0-15.46,7.13-15.46,16.43s6.68,16.55,15.46,16.55c5.48,0,9.08-2.11,12.9-5.76l3,2.91C997.16,715.09,992.59,717.89,985.35,717.89Z"/><path class="cls-1" d="M1049.46,681.37H1025.1V695h21.8v4.1h-21.8v14h24.65v4.11h-29.16V677.26h28.87Z"/><path class="cls-1" d="M1127.55,718l-6.27-6.45c-3.66,3.94-7.88,6.22-13.07,6.22-7.19,0-12.55-4.5-12.55-11.24,0-5.36,3.53-9.18,9.64-11.58-2.74-3.2-4-5.65-4-8.84,0-5.31,4.23-9.53,10.56-9.53,5.59,0,9.7,4,9.7,9.07s-3.6,8.39-9.41,10.44l9.13,9.3a52.43,52.43,0,0,0,4.79-8.9l3.71,1.71a56.16,56.16,0,0,1-5.76,10l7,7.14Zm-19.68-20.25c-5.31,1.94-7.65,5.19-7.65,8.61,0,4.34,3.42,7.59,8.33,7.59,3.77,0,7.08-2,10-5.19Zm3.82-17.46a5.73,5.73,0,0,0-6,5.82c0,2.39,1,4.16,4,7.41,5.09-1.71,7.71-4.11,7.71-7.64A5.44,5.44,0,0,0,1111.69,680.29Z"/><path class="cls-1" d="M1207.23,681.37h-24.36V695h21.79v4.1h-21.79v14h24.65v4.11h-29.15V677.26h28.86Z"/><path class="cls-1" d="M1226.05,702.37v-4.62h15.86v4.62Z"/><path class="cls-1" d="M1267.18,699.23v18h-4.5V677.26h4.5V695h23V677.26h4.51V717.2h-4.51v-18Z"/><path class="cls-1" d="M1346.3,681.37h-24.36V695h21.8v4.1h-21.8v14h24.64v4.11h-29.15V677.26h28.87Z"/><path class="cls-1" d="M1404.26,717.2h-4.85l-4.68-10.55H1373l-4.74,10.55h-4.61L1381.83,677h4.23Zm-20.37-35-9.13,20.36H1393Z"/><path class="cls-1" d="M1423.53,677.26H1428V713h22.48v4.16h-27Z"/><path class="cls-1" d="M1479.66,717.2h-4.57V681.43h-13.4v-4.17h31.38v4.17h-13.41Z"/><path class="cls-1" d="M1517.42,699.23v18h-4.51V677.26h4.51V695h23V677.26H1545V717.2h-4.52v-18Z"/></g></g></svg>