<svg xmlns="http://www.w3.org/2000/svg" viewBox="0 0 1555.8 623.57"><defs><style>.cls-1{fill:#008bcd;}</style></defs><title>Recurso 64</title><g id="Capa_2" data-name="Capa 2"><g id="Capa_4" data-name="Capa 4"><path class="cls-1" d="M500,387.62a8.2,8.2,0,0,0-11.56-.52l-32.88,30.26a8.18,8.18,0,0,0-.42,11.56l12.75,13.93.09.1.1-.1,24.78-22.78L515.79,445l14-12.89a8.19,8.19,0,0,0,.48-11.52Z"/><path class="cls-1" d="M615.4,392.38a8.12,8.12,0,0,0-11.51-.47L571,422.16a8.14,8.14,0,0,0-.53,11.51l12.94,14,24.84-22.84,22.92,24.93,14-12.94a8.17,8.17,0,0,0,.52-11.51Z"/><path class="cls-1" d="M747.85,377.3l-2.55-.09a198,198,0,0,0-31.22-69.52,200.63,200.63,0,0,0-108.74-77.45l7.61-19,4.33-10.7.09-.24.33-.85.15-.34,13.41-33.49L638.68,147l-.47,1.05.42-1.05,1-2.38a191.25,191.25,0,0,0-20.27-3.38l-2-.19a165,165,0,0,0-24.6-.52q-4.71.21-9.27.71l2-5.85h-.05l12-33.77L618.7,41.91,633.59,0,604.43,36.77l-76.68,96.76-.62.76-16.51,20.79-24.07,30.3-13.37,16.89-.14.19-.52.67A231.66,231.66,0,0,1,500.11,195c.76-.14,1.57-.33,2.38-.52a229.9,229.9,0,0,1,46.09-5l-.23.47-.24.48L542,202.41l-10.84,21.12a198.82,198.82,0,0,0-93.91,34.25A201.75,201.75,0,0,0,398,293.22v0c-2.24,2.57-4.33,5.19-6.38,7.85a199.35,199.35,0,0,0-26.88,47.19c-.42,1-.85,2-1.23,3.05-.19.47-.38,1-.57,1.47-1.35,3.61-2.58,7.29-3.72,11l-2.55-.09a24.9,24.9,0,0,0-25.75,24L329,442.42a24.9,24.9,0,0,0,24,25.75l2.5.09a196.2,196.2,0,0,0,7.39,24.38c.38,1.05.81,2.14,1.28,3.19a195.81,195.81,0,0,0,27.4,48.52,197.84,197.84,0,0,0,32.63,33.44c1.19,1,2.43,2,3.67,3,1.62,1.24,3.23,2.47,4.9,3.66s3.38,2.43,5.09,3.62c.66.47,1.28.9,1.95,1.33.43.29.81.52,1.23.81,1.67,1.09,3.33,2.19,5.05,3.23,1.19.72,2.38,1.43,3.56,2.19s2.53,1.43,3.76,2.14c1,.53,1.95,1,2.95,1.62,3.05,1.62,6.09,3.19,9.23,4.66.38.19.71.33,1.05.48,4.14,1.95,8.37,3.71,12.65,5.32,1.43.53,2.9,1.1,4.33,1.58s2.9,1,4.38,1.52c2.9,1,5.9,1.85,8.89,2.71,1.48.38,3,.81,4.52,1.19,3.09.81,6.19,1.52,9.28,2.14s6.09,1.14,9.18,1.62c1.28.19,2.52.38,3.8.52s2.29.33,3.48.43l1.09.14c1.38.19,2.81.33,4.19.43,2,.19,4.09.33,6.13.43,1.81.09,3.67.19,5.52.23,1.43,0,2.9.1,4.38.1.66,0,1.28,0,2,0,3.23,0,6.42-.1,9.61-.19a3.17,3.17,0,0,1,.66-.05h.38c1.15,0,2.34-.14,3.48-.24.43,0,.9,0,1.33-.09a11.93,11.93,0,0,1,1.38-.1.88.88,0,0,1,.38-.05c1.52-.14,3-.28,4.57-.47,1.33-.14,2.66-.33,3.94-.43a.43.43,0,0,1,.24,0,5,5,0,0,1,.86-.09l1-.15c2.52-.38,5.09-.76,7.61-1.23,1.62-.29,3.28-.62,4.9-1s3.24-.67,4.85-1c3.24-.76,6.43-1.57,9.61-2.47,2.9-.86,5.81-1.72,8.71-2.72,1-.33,2-.71,3-1,1.86-.67,3.67-1.33,5.47-2,4.19-1.61,8.33-3.33,12.37-5.28,1.38-.66,2.71-1.28,4.05-2,3.71-1.85,7.32-3.8,10.89-5.85,1.9-1.09,3.76-2.19,5.56-3.33,3.33-2.09,6.66-4.28,9.9-6.56,1.43-1,2.81-2,4.19-3a200.46,200.46,0,0,0,67.36-87.62c1.83-4.64,3.45-9.39,4.93-14.19l2.57.09a24.91,24.91,0,0,0,25.75-24l1.89-54.65A24.9,24.9,0,0,0,747.85,377.3Zm-49.66,48.6a147.71,147.71,0,0,1-276.1,69.93c-.61-1.05-1.23-2.1-1.8-3.19a146.14,146.14,0,0,1-17.65-69.88c0-3.52.14-7,.38-10.47a145.54,145.54,0,0,1,17.27-59.46c.81-1.52,1.66-3,2.52-4.52A141,141,0,0,1,433.89,332a147.49,147.49,0,0,1,204.89-27.68,148.93,148.93,0,0,1,36.1,38.77c1.15,1.71,2.19,3.47,3.24,5.23a147.09,147.09,0,0,1,20.12,74.45C698.24,423.81,698.24,424.85,698.19,425.9Z"/><path class="cls-1" d="M322.31,583.52a205.53,205.53,0,0,1-35.08,21.54,176.66,176.66,0,0,1-41.15,13.81,241.22,241.22,0,0,1-49.44,4.7q-42.54,0-78.43-15.47a192.3,192.3,0,0,1-62.15-42.25A194.85,194.85,0,0,1,14.91,502.6Q0,466.15,0,424.17q0-41.43,14.64-77.89A192.51,192.51,0,0,1,118.76,239.4q36.45-15.75,80.65-15.75a244.64,244.64,0,0,1,48.33,4.42,196.91,196.91,0,0,1,40,12.43,187.07,187.07,0,0,1,33.7,19.06,263.24,263.24,0,0,1,29.27,24.3l-43.64,50.27A217.74,217.74,0,0,0,258,299.33q-26-13.26-59.11-13.26a121,121,0,0,0-51.09,10.77,126.45,126.45,0,0,0-40.6,29.28,131.51,131.51,0,0,0-26.52,43.36,150.37,150.37,0,0,0-9.39,53.58,152.67,152.67,0,0,0,9.39,53.86,134,134,0,0,0,26.52,43.91,124.55,124.55,0,0,0,40.6,29.55,121,121,0,0,0,51.09,10.77q35.34,0,60.76-13.53t50.27-36.73l43.64,44.19a248.67,248.67,0,0,1-31.21,28.44"/><path class="cls-1" d="M1120.25,583.52a205.44,205.44,0,0,1-35.07,21.54A176.74,176.74,0,0,1,1044,618.87a241.12,241.12,0,0,1-49.43,4.7q-42.54,0-78.44-15.47A192.36,192.36,0,0,1,854,565.85a194.52,194.52,0,0,1-41.15-63.25q-14.91-36.45-14.92-78.43a207,207,0,0,1,14.64-77.89A192.51,192.51,0,0,1,916.7,239.4q36.46-15.75,80.65-15.75a244.5,244.5,0,0,1,48.33,4.42,196.81,196.81,0,0,1,40,12.43,187.76,187.76,0,0,1,33.7,19.06,263.24,263.24,0,0,1,29.27,24.3l-43.64,50.27a217.57,217.57,0,0,0-49.16-34.8q-26-13.26-59.1-13.26a121,121,0,0,0-51.09,10.77,126.6,126.6,0,0,0-40.61,29.28,131.66,131.66,0,0,0-26.51,43.36,150.37,150.37,0,0,0-9.39,53.58,152.67,152.67,0,0,0,9.39,53.86,134.18,134.18,0,0,0,26.51,43.91,124.69,124.69,0,0,0,40.61,29.55,121,121,0,0,0,51.09,10.77q35.34,0,60.76-13.53t50.27-36.73l43.63,44.19a248.67,248.67,0,0,1-31.21,28.44"/><path class="cls-1" d="M1540.88,500.39a194.36,194.36,0,0,1-42,63.8,202,202,0,0,1-64.08,43.36q-37,16-81.75,16t-81.76-15.74q-37-15.75-63.52-42.81a195.5,195.5,0,0,1-41.42-63.53,207.86,207.86,0,0,1,0-154.66,194.17,194.17,0,0,1,42-63.8,201.91,201.91,0,0,1,64.07-43.36q37-16,81.75-16t81.75,15.74q37,15.75,63.53,42.81a195.67,195.67,0,0,1,41.42,63.52,207.89,207.89,0,0,1,0,154.67m-66-129.53A135.33,135.33,0,0,0,1447.81,327a128.85,128.85,0,0,0-41.71-29.83q-24.31-11.06-53-11.05t-52.76,10.77a125,125,0,0,0-41.15,29.28,134.5,134.5,0,0,0-26.79,43.64,151.87,151.87,0,0,0,0,106.6,135.3,135.3,0,0,0,27.07,43.92,128.8,128.8,0,0,0,41.7,29.83q24.3,11,53,11t52.75-10.77a125,125,0,0,0,41.16-29.27,134.65,134.65,0,0,0,26.78-43.64,151.75,151.75,0,0,0,0-106.61"/></g></g></svg>