<svg xmlns="http://www.w3.org/2000/svg" xmlns:xlink="http://www.w3.org/1999/xlink" viewBox="0 0 1555.8 623.38"><defs><style>.cls-1{fill:#cccbcb;}.cls-2{fill:#f8f8f8;}.cls-3{fill:url(#Degradado_sin_nombre_51);}.cls-4{fill:url(#Degradado_sin_nombre_51-2);}</style><linearGradient id="Degradado_sin_nombre_51" x1="329.03" y1="424.67" x2="772.01" y2="424.67" gradientUnits="userSpaceOnUse"><stop offset="0" stop-color="#f8f8f8"/><stop offset="1" stop-color="#cccbcb"/></linearGradient><linearGradient id="Degradado_sin_nombre_51-2" x1="727.9" y1="282.71" x2="380.09" y2="282.71" xlink:href="#Degradado_sin_nombre_51"/></defs><title>Recurso 63</title><g id="Capa_2" data-name="Capa 2"><g id="Capa_4" data-name="Capa 4"><path class="cls-1" d="M322.31,583.33a206.16,206.16,0,0,1-35.08,21.54,176.66,176.66,0,0,1-41.15,13.81,241.92,241.92,0,0,1-49.44,4.7q-42.54,0-78.43-15.47a192.32,192.32,0,0,1-62.15-42.26,194.7,194.7,0,0,1-41.15-63.24Q0,465.95,0,424q0-41.43,14.64-77.88A192.57,192.57,0,0,1,118.76,239.2q36.45-15.75,80.65-15.74a244.68,244.68,0,0,1,48.33,4.41,196.91,196.91,0,0,1,40,12.44,187.07,187.07,0,0,1,33.7,19.06,263.24,263.24,0,0,1,29.27,24.3l-43.64,50.26A218.06,218.06,0,0,0,258,299.13q-26-13.25-59.11-13.25a120.82,120.82,0,0,0-51.09,10.77,126.57,126.57,0,0,0-40.6,29.27,131.56,131.56,0,0,0-26.52,43.37,150.35,150.35,0,0,0-9.39,53.57,152.59,152.59,0,0,0,9.39,53.86,134,134,0,0,0,26.52,43.92,124.55,124.55,0,0,0,40.6,29.55A121,121,0,0,0,198.85,561q35.34,0,60.76-13.54t50.27-36.72l43.64,44.18a248.76,248.76,0,0,1-31.21,28.45"/><path class="cls-1" d="M1120.25,583.33a206.07,206.07,0,0,1-35.07,21.54A176.74,176.74,0,0,1,1044,618.68a241.82,241.82,0,0,1-49.43,4.7q-42.54,0-78.44-15.47A192.39,192.39,0,0,1,854,565.65a194.37,194.37,0,0,1-41.15-63.24Q797.95,465.95,797.94,424a207,207,0,0,1,14.64-77.88A192.57,192.57,0,0,1,916.7,239.2q36.46-15.75,80.65-15.74a244.53,244.53,0,0,1,48.33,4.41,196.82,196.82,0,0,1,40,12.44,187.76,187.76,0,0,1,33.7,19.06,263.24,263.24,0,0,1,29.27,24.3l-43.64,50.26a217.88,217.88,0,0,0-49.16-34.8q-26-13.25-59.1-13.25a120.82,120.82,0,0,0-51.09,10.77,126.72,126.72,0,0,0-40.61,29.27,131.7,131.7,0,0,0-26.51,43.37,150.35,150.35,0,0,0-9.39,53.57,152.59,152.59,0,0,0,9.39,53.86,134.13,134.13,0,0,0,26.51,43.92,124.69,124.69,0,0,0,40.61,29.55A121,121,0,0,0,996.8,561q35.34,0,60.76-13.54t50.27-36.72l43.63,44.18a248.76,248.76,0,0,1-31.21,28.45"/><path class="cls-1" d="M1540.88,500.2a194.46,194.46,0,0,1-42,63.8,202.29,202.29,0,0,1-64.08,43.36q-37,16-81.75,16t-81.76-15.75q-37-15.75-63.52-42.8a195.5,195.5,0,0,1-41.42-63.53,207.86,207.86,0,0,1,0-154.66,194.07,194.07,0,0,1,42-63.8,201.75,201.75,0,0,1,64.07-43.36q37-16,81.75-16t81.75,15.74q37,15.74,63.53,42.81a195.67,195.67,0,0,1,41.42,63.52,207.89,207.89,0,0,1,0,154.67m-66-129.54a135.33,135.33,0,0,0-27.06-43.91,129.15,129.15,0,0,0-41.71-29.83q-24.31-11-53-11t-52.76,10.77a125.13,125.13,0,0,0-41.15,29.27,134.71,134.71,0,0,0-26.79,43.64,151.9,151.9,0,0,0,0,106.61,135.15,135.15,0,0,0,27.07,43.91,128.51,128.51,0,0,0,41.7,29.83q24.3,11.05,53,11.05t52.75-10.77a125.05,125.05,0,0,0,41.16-29.28,134.6,134.6,0,0,0,26.78-43.63,151.78,151.78,0,0,0,0-106.62"/><path class="cls-1" d="M500.07,387.69a8.2,8.2,0,0,0-11.57-.52l-32.87,30.25A8.2,8.2,0,0,0,455.2,429L468,442.93l.09.09.1-.09,24.79-22.79L515.86,445l14-12.89a8.18,8.18,0,0,0,.47-11.52Z"/><path class="cls-1" d="M615.49,392.45A8.13,8.13,0,0,0,604,392L571.1,422.23a8.13,8.13,0,0,0-.52,11.51l12.94,14,24.83-22.84,22.94,24.93,14-12.94a8.18,8.18,0,0,0,.53-11.51Z"/><path class="cls-1" d="M748,377.36l-2.55-.09a198.18,198.18,0,0,0-31.22-69.53,200.61,200.61,0,0,0-108.77-77.46l7.62-19,4.33-10.71.09-.24.33-.85.15-.33,13.41-33.5,7.43-18.56-.48,1.05.43-1.05.95-2.37a185.87,185.87,0,0,0-20.27-3.38l-2-.19a165,165,0,0,0-24.6-.53c-3.14.15-6.24.38-9.28.72l2-5.85h0l12-33.79,21.27-59.75L633.68,0,604.52,36.78l-76.7,96.77-.62.76-16.51,20.8-24.07,30.3L473.25,202.3l-.14.19-.53.67a232.36,232.36,0,0,1,27.6-8.09c.76-.14,1.57-.33,2.38-.52a229.92,229.92,0,0,1,46.1-5l-.24.48-.23.47-6.14,11.9L531.2,223.57a198.8,198.8,0,0,0-93.92,34.26A201.49,201.49,0,0,0,398,293.27v.05c-2.24,2.57-4.33,5.19-6.38,7.85a199.42,199.42,0,0,0-26.88,47.2c-.43,1-.85,2-1.24,3-.19.48-.38,1-.57,1.48-1.35,3.61-2.57,7.29-3.71,11l-2.56-.09a24.91,24.91,0,0,0-25.75,24l-1.89,54.66a24.91,24.91,0,0,0,24,25.76l2.51.08A197.5,197.5,0,0,0,363,492.72c.38,1,.81,2.14,1.29,3.19a195.69,195.69,0,0,0,27.4,48.53,198,198,0,0,0,32.64,33.45c1.19,1,2.43,2,3.67,3,1.61,1.23,3.23,2.47,4.9,3.66s3.37,2.43,5.09,3.62c.66.47,1.28.9,1.95,1.33.43.28.81.52,1.23.81,1.67,1.09,3.34,2.18,5.05,3.23,1.19.72,2.38,1.43,3.57,2.19l3.76,2.14c1,.53,1.95,1,2.95,1.62,3,1.62,6.09,3.19,9.23,4.66.38.19.71.33,1,.48,4.14,1.95,8.38,3.71,12.66,5.33,1.43.52,2.9,1.09,4.33,1.57s2.9,1,4.37,1.52c2.91,1,5.9,1.85,8.9,2.71,1.48.38,3,.81,4.52,1.19,3.09.81,6.19,1.52,9.28,2.14s6.09,1.14,9.18,1.62c1.29.19,2.52.38,3.81.52s2.28.34,3.47.43l1.1.14c1.38.19,2.8.34,4.18.43,2.05.19,4.09.33,6.14.43,1.81.1,3.66.19,5.52.24,1.43,0,2.9.09,4.38.09.66,0,1.28,0,1.95,0,3.23,0,6.42-.09,9.61-.19a3.17,3.17,0,0,1,.66,0h.39c1.14,0,2.33-.14,3.47-.24a11.88,11.88,0,0,0,1.33-.09,11.93,11.93,0,0,1,1.38-.1,1.11,1.11,0,0,1,.38,0c1.52-.15,3-.29,4.57-.48,1.33-.14,2.66-.33,4-.43a.49.49,0,0,1,.24,0,4.93,4.93,0,0,1,.85-.1l.95-.14c2.52-.38,5.09-.76,7.62-1.24,1.61-.29,3.28-.62,4.9-1s3.23-.67,4.85-1c3.23-.76,6.42-1.57,9.61-2.47,2.9-.86,5.8-1.72,8.71-2.71,1-.34,2-.72,3-1,1.86-.67,3.67-1.33,5.47-2,4.19-1.61,8.33-3.33,12.37-5.28,1.38-.66,2.72-1.28,4-1.95,3.71-1.85,7.33-3.8,10.89-5.85,1.91-1.1,3.76-2.19,5.57-3.33,3.33-2.1,6.66-4.28,9.9-6.57,1.42-1,2.8-2,4.18-3a200.39,200.39,0,0,0,67.37-87.64c1.84-4.64,3.46-9.39,4.94-14.19l2.57.09a24.9,24.9,0,0,0,25.75-24l1.9-54.67A24.91,24.91,0,0,0,748,377.36ZM698.3,426a147.74,147.74,0,0,1-276.15,69.94c-.62-1.05-1.24-2.09-1.81-3.19a146.3,146.3,0,0,1-17.65-69.89c0-3.52.14-7,.38-10.47a145.89,145.89,0,0,1,17.27-59.47c.81-1.52,1.67-3,2.53-4.52A141,141,0,0,1,434,332.05a147.49,147.49,0,0,1,204.92-27.69A149.12,149.12,0,0,1,675,343.13c1.14,1.72,2.19,3.48,3.24,5.24a147,147,0,0,1,20.12,74.46C698.34,423.88,698.34,424.92,698.3,426Z"/><path class="cls-2" d="M500.08,387.68a8.19,8.19,0,0,0-11.56-.52l-32.88,30.26a8.19,8.19,0,0,0-.43,11.56L468,442.92l.1.1.09-.1,24.79-22.79L515.87,445l14-12.89a8.17,8.17,0,0,0,.47-11.51Z"/><path class="cls-2" d="M615.5,392.44A8.13,8.13,0,0,0,604,392l-32.88,30.26a8.14,8.14,0,0,0-.52,11.52l12.94,14,24.84-22.83,22.93,24.93,14-12.94a8.18,8.18,0,0,0,.53-11.52Z"/><path class="cls-3" d="M748,377.37l-2.56-.11A200.75,200.75,0,0,0,637.29,242.43a174,174,0,0,1-47.73,323,147.72,147.72,0,0,1-111-13.51h0A174,174,0,0,1,512,226.35a198.89,198.89,0,0,0-74.73,31.46A202,202,0,0,0,398,293.28v0c-2.24,2.58-4.33,5.21-6.37,7.86a199.33,199.33,0,0,0-26.88,47.21c-.43,1-.87,2-1.23,3-.21.47-.39,1-.57,1.47-1.37,3.61-2.58,7.3-3.74,11l-2.55-.11A24.91,24.91,0,0,0,331,387.83L329,442.49a24.91,24.91,0,0,0,24,25.75l2.5.1a196.08,196.08,0,0,0,7.4,24.38c.36,1,.8,2.14,1.26,3.19a198.62,198.62,0,0,0,60.05,82c1.19,1,2.42,1.93,3.66,2.94,1.62,1.24,3.25,2.47,4.92,3.66s3.38,2.42,5.08,3.63c.67.47,1.29.9,2,1.32l1.23.82c1.65,1.08,3.33,2.19,5.06,3.22,1.18.72,2.37,1.45,3.55,2.19s2.53,1.42,3.76,2.14c1,.52,2,1.06,2.94,1.63,3,1.62,6.11,3.19,9.23,4.66.38.18.72.34,1.05.46,4.15,2,8.38,3.72,12.66,5.34,1.44.51,2.91,1.11,4.33,1.57s2.91,1.06,4.38,1.52c2.91,1,5.9,1.86,8.89,2.71,1.47.38,3,.82,4.54,1.18q4.64,1.25,9.27,2.17c3,.56,6.09,1.13,9.18,1.6,1.29.2,2.52.38,3.81.54s2.27.33,3.46.41l1.1.15c1.37.18,2.81.34,4.18.42,2.06.2,4.1.33,6.16.43,1.8.11,3.66.18,5.51.24,1.42,0,2.89.1,4.38.1.65,0,1.27,0,1.94,0,3.24,0,6.41-.1,9.61-.21.23,0,.49,0,.67,0h.39c1.13,0,2.32-.16,3.48-.26.41,0,.9,0,1.31-.08a12.11,12.11,0,0,1,1.39-.1.86.86,0,0,1,.39-.05c1.52-.13,3-.28,4.56-.46,1.31-.16,2.65-.34,3.94-.44a.45.45,0,0,1,.23,0,4.22,4.22,0,0,1,.85-.11,7.9,7.9,0,0,0,1-.13c2.52-.38,5.1-.77,7.63-1.23,1.62-.29,3.27-.62,4.89-1s3.25-.67,4.85-1q4.86-1.12,9.61-2.48c2.91-.85,5.8-1.7,8.71-2.7,1.06-.34,2-.72,3-1,1.86-.67,3.66-1.34,5.49-2.07,4.18-1.62,8.33-3.32,12.37-5.28,1.37-.67,2.71-1.29,4-1.93q5.57-2.79,10.9-5.88c1.91-1.08,3.77-2.16,5.57-3.32,3.35-2.09,6.67-4.28,9.9-6.57,1.44-1,2.8-2,4.2-3a200.35,200.35,0,0,0,67.36-87.63c1.83-4.66,3.46-9.4,4.95-14.2l2.55.08a24.91,24.91,0,0,0,25.77-24L772,403.11A24.86,24.86,0,0,0,748,377.37Z"/><path class="cls-4" d="M727.9,395.15A174,174,0,0,1,589.56,565.42,148.36,148.36,0,0,0,679,495.91,146.68,146.68,0,0,0,698.31,426c0-1.06,0-2.11,0-3.14a146.88,146.88,0,0,0-20.13-74.46c-1-1.77-2.08-3.53-3.22-5.25a148.89,148.89,0,0,0-36.1-38.76A147.55,147.55,0,0,0,434,332a142.12,142.12,0,0,0-11.08,16.34c-.85,1.52-1.72,3-2.52,4.51a145.48,145.48,0,0,0-17.27,59.48c-.23,3.46-.39,6.94-.39,10.47a146.13,146.13,0,0,0,17.66,69.89c.56,1.08,1.18,2.14,1.8,3.19a148.35,148.35,0,0,0,56.41,56A174,174,0,0,1,512,226.35s0,0,.06,0a170,170,0,0,1,19.61-3.69l10.38-20.23,6.14-11.88.23-.49.23-.46a228.55,228.55,0,0,0-46.1,5c-.8.18-1.63.38-2.37.51a231.42,231.42,0,0,0-27.61,8.09l.52-.67.15-.18,13.38-16.9,24.07-30.31,16.52-20.8.62-.74,76.69-96.77L633.68,0,618.81,41.9l-21.29,59.77-12,33.78h0l-2,5.85c3-.33,6.14-.56,9.28-.72a167.6,167.6,0,0,1,24.59.52l2.06.2a187.31,187.31,0,0,1,20.26,3.38l-1,2.37-.44,1.06.49-1.06-7.42,18.56-13.43,33.5-.12.33-.34.85-.1.24L613,211.25,605.9,229.1a174,174,0,0,1,122,166Z"/></g></g></svg>