<svg xmlns="http://www.w3.org/2000/svg" xmlns:xlink="http://www.w3.org/1999/xlink" viewBox="0 0 1555.8 623.38"><defs><style>.cls-1{fill:#0e1424;}.cls-2{fill:url(#Degradado_sin_nombre_21);}.cls-3{fill:url(#Degradado_sin_nombre_21-2);}</style><linearGradient id="Degradado_sin_nombre_21" x1="328.94" y1="424.93" x2="772.2" y2="424.93" gradientUnits="userSpaceOnUse"><stop offset="0" stop-color="#282e3a"/><stop offset="1"/></linearGradient><linearGradient id="Degradado_sin_nombre_21-2" x1="728.06" y1="282.88" x2="380.04" y2="282.88" xlink:href="#Degradado_sin_nombre_21"/></defs><title>Recurso 61</title><g id="Capa_2" data-name="Capa 2"><g id="Capa_4" data-name="Capa 4"><path class="cls-1" d="M500.1,387.92a8.2,8.2,0,0,0-11.57-.52l-32.9,30.28a8.2,8.2,0,0,0-.43,11.57L468,443.2l.1.09.09-.09L493,420.39l22.94,24.9L530,432.39a8.18,8.18,0,0,0,.47-11.52Z"/><path class="cls-1" d="M615.6,392.68a8.15,8.15,0,0,0-11.53-.47l-32.89,30.28a8.14,8.14,0,0,0-.53,11.52l13,14,24.85-22.85,22.95,24.95,14.05-12.95a8.19,8.19,0,0,0,.52-11.52Z"/><path class="cls-1" d="M748.15,377.6l-2.55-.1a198.4,198.4,0,0,0-31.26-69.58,200.43,200.43,0,0,0-77-65.34A174,174,0,0,0,606,229.25l7.14-17.87,4.33-10.73.1-.23.34-.85.13-.34,13.43-33.52,7.43-18.57-.49,1.06.44-1.06.95-2.37a187.09,187.09,0,0,0-20.27-3.38l-2.06-.21a167.69,167.69,0,0,0-24.6-.51q-4.73.22-9.28.72l2-5.85h-.05l12-33.81,21.3-59.8L633.78,0,604.62,36.8l-76.74,96.83-.62.75-16.53,20.81-24.09,30.32-13.38,16.92-.16.18-.51.67a229.77,229.77,0,0,1,27.62-8.1c.74-.13,1.57-.33,2.37-.51a228.13,228.13,0,0,1,46.13-4.95l-.23.46-.23.49-6.14,11.89L531.72,222.8a171.13,171.13,0,0,0-19.63,3.69s0,0-.05,0A199.15,199.15,0,0,0,437.26,258,201.57,201.57,0,0,0,398,293.46v0c-2.25,2.58-4.34,5.21-6.37,7.87a199.05,199.05,0,0,0-26.9,47.24c-.44,1-.88,2-1.24,3-.2.47-.38,1-.56,1.47-1.37,3.61-2.58,7.3-3.74,11l-2.56-.1a24.93,24.93,0,0,0-25.76,24.06L329,442.77A24.93,24.93,0,0,0,353,468.53l2.51.1a192.4,192.4,0,0,0,7.4,24.39c.36,1.06.8,2.14,1.26,3.2a198.88,198.88,0,0,0,60.08,82c1.19,1,2.43,1.93,3.66,2.94,1.63,1.24,3.25,2.48,4.93,3.66s3.38,2.43,5.08,3.64c.67.46,1.29.9,2,1.31.41.29.8.54,1.24.83,1.65,1.08,3.32,2.19,5.05,3.22,1.19.72,2.37,1.45,3.56,2.19s2.53,1.42,3.77,2.14c1,.52,2,1.06,2.94,1.63,3,1.62,6.11,3.2,9.23,4.67.38.18.72.33,1.05.46,4.16,2,8.39,3.71,12.67,5.34,1.44.51,2.91,1.11,4.33,1.57s2.91,1.06,4.38,1.52c2.92,1,5.91,1.86,8.9,2.71,1.47.39,3,.83,4.54,1.19,3.09.82,6.19,1.54,9.28,2.16s6.09,1.14,9.18,1.6c1.29.21,2.53.39,3.82.54,1.13.18,2.27.34,3.45.42l1.11.15c1.37.18,2.81.34,4.18.41,2.06.21,4.1.34,6.16.44,1.81.1,3.66.18,5.52.23,1.42,0,2.89.11,4.38.11.65,0,1.27,0,1.94,0,3.25,0,6.42-.11,9.62-.21.23,0,.49,0,.67,0h.38c1.14-.06,2.33-.16,3.49-.26.41,0,.9,0,1.31-.08a12.11,12.11,0,0,1,1.39-.1.88.88,0,0,1,.39-.05c1.52-.13,3-.29,4.56-.47,1.32-.15,2.66-.33,4-.44a.44.44,0,0,1,.23,0,5,5,0,0,1,.85-.1c.34,0,.62-.08,1-.13,2.52-.39,5.1-.77,7.63-1.24,1.62-.28,3.28-.62,4.9-1s3.25-.67,4.85-1.06c3.25-.75,6.44-1.57,9.62-2.48,2.91-.85,5.8-1.7,8.71-2.7,1.06-.34,2-.73,3-1,1.85-.68,3.66-1.34,5.49-2.07,4.18-1.62,8.33-3.32,12.38-5.28,1.36-.67,2.7-1.29,4-1.94q5.57-2.78,10.91-5.88c1.9-1.08,3.76-2.16,5.57-3.32,3.35-2.09,6.68-4.28,9.9-6.58,1.44-1,2.81-2,4.2-3A200.47,200.47,0,0,0,737,496.22c1.83-4.67,3.46-9.41,5-14.21l2.55.08a24.93,24.93,0,0,0,25.79-24l1.88-54.7A24.89,24.89,0,0,0,748.15,377.6ZM550.57,571a146.73,146.73,0,0,1-72-18.74h0a148.63,148.63,0,0,1-56.45-56c-.62-1.06-1.23-2.11-1.8-3.2a146.16,146.16,0,0,1-17.67-69.93c0-3.53.16-7,.39-10.47a145.62,145.62,0,0,1,17.28-59.52c.8-1.52,1.67-3,2.52-4.51a141.05,141.05,0,0,1,11.09-16.35A147.61,147.61,0,0,1,639,304.55a149.08,149.08,0,0,1,36.13,38.78c1.14,1.73,2.19,3.48,3.22,5.26a146.94,146.94,0,0,1,20.14,74.5c0,1,0,2.09,0,3.15a146.74,146.74,0,0,1-19.34,70A147.68,147.68,0,0,1,550.57,571Z"/><path class="cls-1" d="M500.1,387.92a8.2,8.2,0,0,0-11.57-.52l-32.9,30.28a8.2,8.2,0,0,0-.43,11.57L468,443.2l.1.09.09-.09L493,420.39l22.94,24.9L530,432.39a8.18,8.18,0,0,0,.47-11.52Z"/><path class="cls-1" d="M615.6,392.68a8.15,8.15,0,0,0-11.53-.47l-32.89,30.28a8.14,8.14,0,0,0-.53,11.52l13,14,24.85-22.85,22.95,24.95,14.05-12.95a8.19,8.19,0,0,0,.52-11.52Z"/><path class="cls-2" d="M748.15,377.6l-2.55-.1a198.4,198.4,0,0,0-31.26-69.58,200.43,200.43,0,0,0-77-65.34,174.08,174.08,0,0,1-47.75,323.19,147.9,147.9,0,0,1-111-13.51h0A174.1,174.1,0,0,1,512,226.49,199.15,199.15,0,0,0,437.26,258,201.57,201.57,0,0,0,398,293.46v0c-2.25,2.58-4.34,5.21-6.37,7.87a198.85,198.85,0,0,0-26.9,47.24c-.44,1-.88,2-1.24,3-.2.47-.38,1-.56,1.47-1.37,3.61-2.58,7.3-3.74,11l-2.56-.1a24.93,24.93,0,0,0-25.76,24.06L329,442.76A24.94,24.94,0,0,0,353,468.53l2.51.1a192.4,192.4,0,0,0,7.4,24.39c.36,1.06.8,2.14,1.26,3.2a198.88,198.88,0,0,0,60.08,82c1.19,1,2.43,1.93,3.67,2.94,1.62,1.24,3.24,2.48,4.92,3.66s3.38,2.43,5.08,3.64c.67.46,1.29.9,2,1.31.41.29.8.54,1.24.83,1.65,1.08,3.33,2.19,5.05,3.22,1.19.72,2.37,1.45,3.56,2.19s2.53,1.42,3.77,2.14c1,.52,2,1.06,2.94,1.63,3,1.62,6.11,3.2,9.23,4.67.38.18.72.33,1.05.46,4.16,2,8.39,3.71,12.67,5.34,1.44.51,2.91,1.11,4.33,1.57s2.91,1.06,4.38,1.52c2.92,1,5.91,1.86,8.9,2.71,1.47.39,3,.83,4.54,1.19,3.09.82,6.19,1.54,9.28,2.16s6.09,1.14,9.18,1.6c1.29.21,2.53.39,3.82.54,1.13.18,2.27.34,3.45.42l1.11.15c1.37.18,2.81.34,4.18.41,2.06.21,4.1.34,6.16.44,1.81.1,3.66.18,5.52.23,1.42,0,2.89.11,4.38.11.65,0,1.27,0,1.94,0,3.25,0,6.42-.11,9.62-.21.23,0,.49,0,.67,0h.38c1.14-.06,2.33-.16,3.49-.26.41,0,.9,0,1.31-.08a12.11,12.11,0,0,1,1.39-.1.88.88,0,0,1,.39-.05c1.52-.13,3-.29,4.56-.47,1.32-.15,2.66-.33,4-.44a.44.44,0,0,1,.23,0,5,5,0,0,1,.85-.1c.34,0,.62-.08,1-.13,2.52-.39,5.1-.77,7.63-1.24,1.62-.28,3.28-.62,4.9-1s3.25-.67,4.85-1.06c3.25-.75,6.44-1.57,9.62-2.47,2.91-.86,5.8-1.71,8.71-2.71,1.06-.34,2-.72,3-1,1.85-.67,3.66-1.34,5.49-2.07,4.18-1.62,8.33-3.32,12.38-5.28,1.36-.67,2.7-1.29,4-1.94q5.57-2.78,10.91-5.88c1.9-1.08,3.76-2.16,5.57-3.32,3.35-2.09,6.68-4.28,9.9-6.58,1.44-1,2.81-2,4.2-3A200.47,200.47,0,0,0,737,496.22c1.83-4.67,3.46-9.41,5-14.21l2.55.08a24.93,24.93,0,0,0,25.79-24l1.88-54.7A24.89,24.89,0,0,0,748.15,377.6Z"/><path class="cls-3" d="M728.06,395.39A174.08,174.08,0,0,1,589.64,565.77a148.45,148.45,0,0,0,89.48-69.55,146.74,146.74,0,0,0,19.34-70c0-1.06,0-2.12,0-3.15a146.94,146.94,0,0,0-20.14-74.5c-1-1.78-2.08-3.53-3.22-5.26A149.08,149.08,0,0,0,639,304.55a147.64,147.64,0,0,0-205.06,27.69,139.72,139.72,0,0,0-11.08,16.35c-.86,1.52-1.73,3-2.53,4.51A145.62,145.62,0,0,0,403,412.62c-.23,3.46-.39,6.94-.39,10.47A146.16,146.16,0,0,0,420.32,493c.57,1.09,1.18,2.14,1.8,3.2a148.63,148.63,0,0,0,56.45,56A174.1,174.1,0,0,1,512,226.49s0,0,.05,0a171.13,171.13,0,0,1,19.63-3.69l10.39-20.24,6.14-11.89.23-.49.23-.46a228.13,228.13,0,0,0-46.13,4.95c-.8.18-1.63.38-2.37.51a229.77,229.77,0,0,0-27.62,8.1l.51-.67.16-.18,13.38-16.92,24.09-30.32,16.53-20.81.62-.75L604.62,36.8,633.78,0,618.9,41.93l-21.3,59.8-12,33.81h.05l-2,5.85q4.56-.49,9.28-.72a167.69,167.69,0,0,1,24.6.51l2.06.21a186.68,186.68,0,0,1,20.27,3.38l-.95,2.37-.44,1.06.49-1.06-7.43,18.57L618,199.23l-.13.34-.34.85-.1.23-4.33,10.73L606,229.25A174.06,174.06,0,0,1,728.06,395.39Z"/><path class="cls-1" d="M322.31,583.33a206.16,206.16,0,0,1-35.08,21.54,176.66,176.66,0,0,1-41.15,13.81,241.92,241.92,0,0,1-49.44,4.7q-42.54,0-78.43-15.47a192.32,192.32,0,0,1-62.15-42.26,194.7,194.7,0,0,1-41.15-63.24Q0,465.95,0,424q0-41.43,14.64-77.88A192.57,192.57,0,0,1,118.76,239.2q36.45-15.75,80.65-15.74a244.68,244.68,0,0,1,48.33,4.41,196.91,196.91,0,0,1,40,12.44,187.07,187.07,0,0,1,33.7,19.06,263.24,263.24,0,0,1,29.27,24.3l-43.64,50.26A218.06,218.06,0,0,0,258,299.13q-26-13.25-59.11-13.25a120.82,120.82,0,0,0-51.09,10.77,126.57,126.57,0,0,0-40.6,29.27,131.56,131.56,0,0,0-26.52,43.37,150.35,150.35,0,0,0-9.39,53.57,152.59,152.59,0,0,0,9.39,53.86,134,134,0,0,0,26.52,43.92,124.55,124.55,0,0,0,40.6,29.55A121,121,0,0,0,198.85,561q35.34,0,60.76-13.54t50.27-36.72l43.64,44.18a248.76,248.76,0,0,1-31.21,28.45"/><path class="cls-1" d="M1120.25,583.33a206.07,206.07,0,0,1-35.07,21.54A176.74,176.74,0,0,1,1044,618.68a241.82,241.82,0,0,1-49.43,4.7q-42.54,0-78.44-15.47A192.39,192.39,0,0,1,854,565.65a194.37,194.37,0,0,1-41.15-63.24Q797.95,465.95,797.94,424a207,207,0,0,1,14.64-77.88A192.57,192.57,0,0,1,916.7,239.2q36.46-15.75,80.65-15.74a244.53,244.53,0,0,1,48.33,4.41,196.82,196.82,0,0,1,40,12.44,187.76,187.76,0,0,1,33.7,19.06,263.24,263.24,0,0,1,29.27,24.3l-43.64,50.26a217.88,217.88,0,0,0-49.16-34.8q-26-13.25-59.1-13.25a120.82,120.82,0,0,0-51.09,10.77,126.72,126.72,0,0,0-40.61,29.27,131.7,131.7,0,0,0-26.51,43.37,150.35,150.35,0,0,0-9.39,53.57,152.59,152.59,0,0,0,9.39,53.86,134.13,134.13,0,0,0,26.51,43.92,124.69,124.69,0,0,0,40.61,29.55A121,121,0,0,0,996.8,561q35.34,0,60.76-13.54t50.27-36.72l43.63,44.18a248.76,248.76,0,0,1-31.21,28.45"/><path class="cls-1" d="M1540.88,500.2a194.46,194.46,0,0,1-42,63.8,202.29,202.29,0,0,1-64.08,43.36q-37,16-81.75,16t-81.76-15.75q-37-15.75-63.52-42.8a195.5,195.5,0,0,1-41.42-63.53,207.86,207.86,0,0,1,0-154.66,194.07,194.07,0,0,1,42-63.8,201.75,201.75,0,0,1,64.07-43.36q37-16,81.75-16t81.75,15.74q37,15.74,63.53,42.81a195.67,195.67,0,0,1,41.42,63.52,207.89,207.89,0,0,1,0,154.67m-66-129.54a135.33,135.33,0,0,0-27.06-43.91,129.15,129.15,0,0,0-41.71-29.83q-24.31-11-53-11t-52.76,10.77a125.13,125.13,0,0,0-41.15,29.27,134.71,134.71,0,0,0-26.79,43.64,151.9,151.9,0,0,0,0,106.61,135.15,135.15,0,0,0,27.07,43.91,128.51,128.51,0,0,0,41.7,29.83q24.3,11.05,53,11.05t52.75-10.77a125.05,125.05,0,0,0,41.16-29.28,134.6,134.6,0,0,0,26.78-43.63,151.78,151.78,0,0,0,0-106.62"/></g></g></svg>