<svg xmlns="http://www.w3.org/2000/svg" xmlns:xlink="http://www.w3.org/1999/xlink" viewBox="0 0 678.79 1010.31"><defs><style>.cls-1{fill:#0e1424;}.cls-2{fill:#008bcd;}.cls-3{fill:url(#Degradado_sin_nombre_3);}.cls-4{fill:url(#Degradado_sin_nombre_3-2);}</style><linearGradient id="Degradado_sin_nombre_3" x1="289.12" y1="373.56" x2="678.79" y2="373.56" gradientUnits="userSpaceOnUse"><stop offset="0" stop-color="#00c1d1"/><stop offset="1" stop-color="#3d248c"/></linearGradient><linearGradient id="Degradado_sin_nombre_3-2" x1="639.99" y1="248.68" x2="334.04" y2="248.68" xlink:href="#Degradado_sin_nombre_3"/></defs><title>Recurso 55</title><g id="Capa_2" data-name="Capa 2"><g id="Capa_4" data-name="Capa 4"><path class="cls-1" d="M283.34,899.94a181.38,181.38,0,0,1-30.83,18.94A155.6,155.6,0,0,1,216.33,931a212.13,212.13,0,0,1-43.46,4.14q-37.4,0-69-13.6A169.19,169.19,0,0,1,49.29,884.4a171.12,171.12,0,0,1-36.18-55.6Q0,796.74,0,759.85a181.79,181.79,0,0,1,12.87-68.47,169.27,169.27,0,0,1,91.53-94q32.05-13.84,70.9-13.84a215.42,215.42,0,0,1,42.49,3.88A173.28,173.28,0,0,1,253,598.39a165.84,165.84,0,0,1,29.62,16.75,232.64,232.64,0,0,1,25.74,21.37L270,680.7a191.45,191.45,0,0,0-43.21-30.6q-22.83-11.65-52-11.65a106.22,106.22,0,0,0-44.91,9.47,111.22,111.22,0,0,0-35.7,25.73,115.72,115.72,0,0,0-23.3,38.12,132.1,132.1,0,0,0-8.26,47.1,134,134,0,0,0,8.26,47.35,117.61,117.61,0,0,0,23.3,38.6,109.41,109.41,0,0,0,35.7,26,106.38,106.38,0,0,0,44.91,9.47q31.07,0,53.41-11.9t44.19-32.28l38.37,38.84a220.79,220.79,0,0,1-27.44,25"/><path class="cls-1" d="M653.11,826.86a170.92,170.92,0,0,1-36.9,56.08,177.47,177.47,0,0,1-56.33,38.12Q527.35,935.15,488,935.14T416.15,921.3a168.59,168.59,0,0,1-92.26-93.47,182.81,182.81,0,0,1,0-136,170.39,170.39,0,0,1,36.9-56.09,177.57,177.57,0,0,1,56.33-38.12q32.52-14.07,71.86-14.08t71.87,13.84a168.68,168.68,0,0,1,92.26,93.47,182.83,182.83,0,0,1,0,136M595.08,713a118.93,118.93,0,0,0-23.79-38.61,113.48,113.48,0,0,0-36.66-26.22A111.44,111.44,0,0,0,488,638.45q-25.25,0-46.37,9.47a109.92,109.92,0,0,0-36.18,25.73A118.4,118.4,0,0,0,381.91,712a133.39,133.39,0,0,0,0,93.71,118.89,118.89,0,0,0,23.79,38.61,113.11,113.11,0,0,0,36.67,26.22A111.2,111.2,0,0,0,489,880.27q25.25,0,46.38-9.47a109.87,109.87,0,0,0,36.18-25.73,118.39,118.39,0,0,0,23.54-38.36,133.42,133.42,0,0,0,0-93.72"/><path class="cls-1" d="M283.34,512.8a181.47,181.47,0,0,1-30.84,18.94,155.84,155.84,0,0,1-36.17,12.14A212.87,212.87,0,0,1,172.87,548q-37.41,0-69-13.6a169.19,169.19,0,0,1-54.63-37.15,171.15,171.15,0,0,1-36.17-55.6Q0,409.62,0,372.71a181.83,181.83,0,0,1,12.87-68.47,169.27,169.27,0,0,1,91.53-94q32.05-13.84,70.9-13.84a215.24,215.24,0,0,1,42.48,3.88A173.18,173.18,0,0,1,253,211.25,165.26,165.26,0,0,1,282.61,228a230.43,230.43,0,0,1,25.73,21.36L270,293.56A191.4,191.4,0,0,0,226.77,263q-22.83-11.66-52-11.65a106.45,106.45,0,0,0-44.92,9.46A111.16,111.16,0,0,0,94.2,286.52a115.54,115.54,0,0,0-23.31,38.12,132.28,132.28,0,0,0-8.25,47.1,134.24,134.24,0,0,0,8.25,47.34A117.58,117.58,0,0,0,94.2,457.69a109.76,109.76,0,0,0,35.69,26,106.45,106.45,0,0,0,44.92,9.46q31.07,0,53.41-11.89T272.41,449l38.36,38.84a218.47,218.47,0,0,1-27.43,25"/><path class="cls-2" d="M439.59,341a7.21,7.21,0,0,0-10.17-.46L400.5,367.18a7.2,7.2,0,0,0-.38,10.17l11.22,12.26.08.08.08-.08,21.81-20.05,20.17,21.89,12.35-11.34a7.19,7.19,0,0,0,.42-10.13Z"/><path class="cls-2" d="M541.12,345.21a7.15,7.15,0,0,0-10.13-.42l-28.92,26.62a7.15,7.15,0,0,0-.46,10.12L513,393.88l21.84-20.09L555,395.72l12.35-11.38a7.19,7.19,0,0,0,.46-10.13Z"/><path class="cls-3" d="M657.65,332l-2.25-.09a174.09,174.09,0,0,0-27.47-61.17,176.37,176.37,0,0,0-67.65-57.44,153,153,0,0,1-42,284.11,129.87,129.87,0,0,1-97.61-11.87h0A153,153,0,0,1,450.09,199.1a175.26,175.26,0,0,0-65.74,27.68A177.09,177.09,0,0,0,349.82,258v0c-2,2.27-3.81,4.58-5.6,6.91a175,175,0,0,0-23.64,41.53c-.39.87-.77,1.75-1.09,2.68-.18.41-.34.86-.5,1.29-1.2,3.17-2.27,6.42-3.29,9.68l-2.24-.09a21.91,21.91,0,0,0-22.65,21.15l-1.67,48.08a21.91,21.91,0,0,0,21.15,22.65l2.2.09a171.73,171.73,0,0,0,6.5,21.44c.32.93.7,1.89,1.11,2.82a174.87,174.87,0,0,0,52.82,72.11c1,.86,2.13,1.7,3.22,2.58,1.43,1.09,2.86,2.18,4.33,3.22s3,2.13,4.47,3.2c.59.4,1.13.79,1.72,1.15.36.25.7.48,1.09.73,1.45.95,2.92,1.92,4.44,2.83,1,.64,2.09,1.27,3.13,1.93s2.22,1.24,3.31,1.88c.88.45,1.72.93,2.58,1.43,2.68,1.43,5.38,2.81,8.12,4.1.34.16.63.3.93.41,3.65,1.72,7.37,3.26,11.13,4.69,1.27.45,2.56,1,3.81,1.38s2.56.93,3.85,1.34c2.56.84,5.19,1.63,7.82,2.38,1.29.34,2.65.73,4,1,2.72.72,5.44,1.36,8.16,1.9s5.35,1,8.07,1.4c1.14.19,2.22.34,3.36.48a29.71,29.71,0,0,0,3,.36l1,.14c1.2.16,2.47.29,3.67.36,1.82.18,3.61.3,5.42.39,1.59.09,3.22.16,4.85.2,1.25,0,2.54.09,3.86.09.56,0,1.11,0,1.7,0,2.85,0,5.64-.09,8.45-.18a4.23,4.23,0,0,1,.59,0h.34c1,0,2-.13,3.06-.22.36,0,.79-.05,1.16-.07a9.32,9.32,0,0,1,1.22-.09.68.68,0,0,1,.34,0c1.34-.11,2.68-.25,4-.41,1.16-.13,2.34-.29,3.47-.38a.36.36,0,0,1,.21-.05,4.82,4.82,0,0,1,.74-.09,7.71,7.71,0,0,0,.84-.11c2.23-.34,4.49-.68,6.71-1.09,1.43-.25,2.88-.54,4.31-.84s2.86-.59,4.26-.93c2.86-.65,5.67-1.38,8.46-2.17,2.56-.75,5.1-1.5,7.66-2.38.93-.3,1.79-.64,2.68-.91,1.63-.59,3.21-1.18,4.82-1.81,3.68-1.43,7.33-2.93,10.89-4.65,1.2-.59,2.38-1.13,3.53-1.7q4.9-2.45,9.59-5.17c1.68-.95,3.31-1.9,4.9-2.92,2.94-1.84,5.87-3.77,8.7-5.78,1.27-.87,2.47-1.75,3.7-2.68a176.28,176.28,0,0,0,59.26-77.07c1.6-4.11,3-8.28,4.35-12.5l2.24.07a21.91,21.91,0,0,0,22.67-21.13l1.66-48.08A21.88,21.88,0,0,0,657.65,332Z"/><path class="cls-4" d="M640,347.59A153,153,0,0,1,518.3,497.36,130.51,130.51,0,0,0,597,436.23a129,129,0,0,0,17-61.53c0-.93,0-1.86,0-2.76a129.19,129.19,0,0,0-17.71-65.5c-.9-1.56-1.83-3.1-2.83-4.62a131.38,131.38,0,0,0-31.76-34.1,129.79,129.79,0,0,0-180.27,24.35,124.7,124.7,0,0,0-9.75,14.37c-.74,1.34-1.51,2.63-2.22,4a128.19,128.19,0,0,0-15.19,52.32c-.2,3-.34,6.1-.34,9.21a128.51,128.51,0,0,0,15.53,61.47c.5,1,1.05,1.89,1.59,2.82a130.7,130.7,0,0,0,49.62,49.26A153,153,0,0,1,450.09,199.1s0,0,0,0a152.5,152.5,0,0,1,17.25-3.24l9.14-17.79,5.4-10.45.2-.43.2-.41a201,201,0,0,0-40.55,4.35c-.7.16-1.43.34-2.09.45a205.51,205.51,0,0,0-24.28,7.12l.46-.59L416,178l11.77-14.87,21.17-26.66,14.53-18.29.55-.66,67.46-85.12L557.11,0,544,36.86,525.3,89.43l-10.58,29.72h0L513,124.3c2.68-.3,5.4-.5,8.16-.64a148,148,0,0,1,21.63.45l1.81.19a160,160,0,0,1,17.82,3l-.84,2.08-.38.93.43-.93-6.53,16.32-11.81,29.47-.11.3-.3.75-.09.2L539,185.82l-6.28,15.71A153,153,0,0,1,640,347.59Z"/><path class="cls-1" d="M129.35,1009.62h-4.23L121,1000.4h-19l-4.13,9.22h-4l15.88-35.1h3.68ZM111.58,979.1l-8,17.77H119.5Z"/><path class="cls-1" d="M150.45,974.77v34.85h-3.93V974.77Z"/><path class="cls-1" d="M220.64,1010.31l-5.48-5.62c-3.19,3.44-6.87,5.42-11.4,5.42-6.28,0-10.95-3.93-10.95-9.8,0-4.68,3.08-8,8.41-10.11-2.39-2.79-3.49-4.93-3.49-7.72,0-4.63,3.69-8.31,9.22-8.31,4.87,0,8.46,3.49,8.46,7.91s-3.14,7.32-8.22,9.12l8,8.11a45,45,0,0,0,4.18-7.76l3.24,1.49a48.87,48.87,0,0,1-5,8.76l6.07,6.22Zm-17.18-17.67c-4.63,1.69-6.67,4.53-6.67,7.52,0,3.78,3,6.62,7.27,6.62,3.29,0,6.17-1.74,8.71-4.53Zm3.33-15.23a5,5,0,0,0-5.27,5.07c0,2.09.85,3.64,3.48,6.47,4.44-1.49,6.73-3.58,6.73-6.67A4.75,4.75,0,0,0,206.79,977.41Z"/><path class="cls-1" d="M290.17,978.35H268.91v11.9h19v3.59h-19V1006h21.51v3.59H265V974.77h25.19Z"/><path class="cls-1" d="M306.59,996.67v-4h13.84v4Z"/><path class="cls-1" d="M342.47,993.93v15.69h-3.93V974.77h3.93v15.48h20.12V974.77h3.93v34.85h-3.93V993.93Z"/><path class="cls-1" d="M411.51,978.35H390.25v11.9h19v3.59h-19V1006h21.51v3.59H386.32V974.77h25.19Z"/><path class="cls-1" d="M462.08,1009.62h-4.22l-4.09-9.22h-19l-4.13,9.22h-4l15.88-35.1h3.68ZM444.31,979.1l-8,17.77h15.89Z"/><path class="cls-1" d="M478.9,974.77h3.93V1006h19.62v3.64H478.9Z"/><path class="cls-1" d="M527.88,1009.62h-4V978.4H512.2v-3.63h27.38v3.63h-11.7Z"/><path class="cls-1" d="M560.83,993.93v15.69H556.9V974.77h3.93v15.48h20.11V974.77h3.94v34.85h-3.94V993.93Z"/></g></g></svg>